<?xml version="1.0" standalone="no"?>
<!DOCTYPE svg PUBLIC "-//W3C//DTD SVG 20010904//EN"
 "http://www.w3.org/TR/2001/REC-SVG-20010904/DTD/svg10.dtd">
<svg version="1.0" xmlns="http://www.w3.org/2000/svg"
 width="225.000000pt" height="225.000000pt" viewBox="0 0 225.000000 225.000000"
 preserveAspectRatio="xMidYMid meet">
<metadata>
Created by potrace 1.11, written by Peter Selinger 2001-2013
</metadata>
<g transform="translate(0.000000,225.000000) scale(0.100000,-0.100000)"
fill="#000000" stroke="none">
<path d="M180 2075 c0 -96 2 -175 5 -175 2 0 27 14 55 30 28 17 55 30 60 30 5
0 32 -13 60 -30 28 -16 53 -30 55 -30 3 0 5 79 5 175 l0 175 -120 0 -120 0 0
-175z"/>
<path d="M765 1643 c-95 -49 -124 -110 -125 -253 0 -100 -2 -106 -27 -130 -45
-43 -53 -78 -53 -225 l0 -135 44 0 c38 0 45 3 48 21 2 12 15 31 30 42 23 17
31 19 54 9 14 -7 31 -26 37 -42 9 -25 17 -30 44 -30 23 0 33 5 33 15 0 13 37
15 275 15 238 0 275 -2 275 -15 0 -10 10 -15 33 -15 27 0 35 5 44 30 6 16 23
35 37 42 23 10 31 8 54 -9 15 -11 28 -30 30 -42 3 -18 10 -21 48 -21 l44 0 0
135 c0 147 -8 182 -54 224 -25 23 -26 29 -26 130 0 118 -15 165 -66 213 -60
56 -75 58 -426 58 -274 -1 -328 -3 -353 -17z m743 -209 c18 -12 22 -25 22 -70
0 -54 0 -54 -30 -54 -34 0 -99 -30 -120 -55 -10 -13 -15 -13 -21 -3 -11 18
-460 19 -466 2 -3 -8 -24 1 -55 22 -32 22 -62 34 -84 34 l-34 0 0 54 c0 89
-15 86 405 86 310 0 364 -2 383 -16z m-709 -230 c23 -19 31 -34 31 -59 0 -69
-35 -105 -101 -105 -45 0 -89 48 -89 95 0 27 8 44 29 66 39 38 87 39 130 3z
m782 -3 c77 -78 -17 -201 -114 -149 -34 18 -46 40 -47 85 0 84 100 124 161 64z
m-247 -141 c64 -24 21 -30 -209 -30 -229 0 -271 6 -212 30 30 12 389 12 421 0z
m64 -77 c3 -10 -56 -13 -272 -13 -240 0 -276 2 -276 15 0 13 34 15 272 13 206
-2 272 -6 276 -15z"/>
<path d="M500 1347 c-38 -19 -54 -60 -40 -102 18 -54 63 -73 74 -30 3 13 20
40 37 59 42 48 37 80 -11 83 -20 1 -47 -4 -60 -10z"/>
<path d="M1656 1352 c-14 -13 -3 -45 29 -88 19 -25 35 -52 35 -60 0 -8 5 -14
11 -14 60 0 87 106 38 147 -15 12 -104 24 -113 15z"/>
<path d="M692 938 c-7 -7 -12 -25 -12 -40 l0 -28 -80 0 c-67 0 -83 -3 -100
-20 -25 -25 -25 -41 -1 -71 l18 -23 432 -3 c426 -3 431 -3 431 17 0 16 7 20
33 21 78 4 117 -3 117 -19 0 -8 -6 -12 -15 -8 -8 3 -15 1 -15 -4 0 -6 24 -9
53 -9 28 1 42 4 30 6 -13 3 -23 12 -23 21 0 15 2 15 10 2 7 -10 13 -11 18 -5
9 14 52 17 52 4 0 -5 10 -10 23 -10 18 -1 17 -3 -8 -10 -23 -6 -16 -7 29 -5
43 2 63 8 72 21 20 26 17 52 -6 75 -17 17 -33 20 -100 20 l-80 0 0 28 c0 27
-15 52 -31 52 -16 0 -39 -33 -39 -56 l0 -24 -375 0 -375 0 0 30 c0 19 -7 33
-19 40 -24 13 -24 13 -39 -2z m855 -170 c-3 -8 -6 -5 -6 6 -1 11 2 17 5 13 3
-3 4 -12 1 -19z m130 16 c-3 -3 -12 -4 -19 -1 -8 3 -5 6 6 6 11 1 17 -2 13 -5z"/>
<path d="M1404 768 c3 -17 78 -17 84 0 2 6 -1 12 -8 12 -6 0 -8 -4 -5 -10 4
-6 -8 -10 -29 -10 -19 0 -37 5 -39 10 -3 6 -4 5 -3 -2z"/>
<path d="M599 713 c-12 -3 -15 -16 -14 -56 1 -29 3 -56 3 -60 1 -4 53 -6 115
-5 l112 3 3 58 3 57 -88 1 c-48 0 -95 2 -103 3 -8 1 -22 1 -31 -1z"/>
<path d="M1477 713 l-48 -4 3 -57 3 -57 109 -3 c74 -2 112 1 116 9 4 6 7 34 6
62 l-1 52 -70 1 c-38 0 -92 -1 -118 -3z"/>
</g>
</svg>
